<svg width="800" height="800" viewBox="0 0 800 800" fill="none" xmlns="http://www.w3.org/2000/svg">
<path d="M407 578C399 578 392 573 388 566C385 560 375 540 334 540C278 540 207 575 207 575C201 578 193 578 187 574C181 570 177 563 177 556V280C177 272 181 265 189 261C192 259 269 221 335 221C370 221 393 232 408 245C423 232 446 221 481 221C547 221 624 259 627 261C634 265 639 272 639 280V557C639 564 635 571 629 575C623 579 615 579 609 576C608 576 538 541 482 541C441 541 431 560 428 567C422 574 414 578 407 578ZM218 294V525C247 513 292 499 334 499C369 499 392 510 407 523C422 510 445 499 480 499C521 499 567 514 596 525V294C574 284 523 264 480 264C439 264 429 283 426 290C422 297 415 302 407 302C399 302 392 297 388 290C385 284 375 264 334 264C291 264 240 284 218 294Z" fill="#442A05"/>
</svg>
