<svg width="800" height="800" viewBox="0 0 800 800" fill="none" xmlns="http://www.w3.org/2000/svg">
<path fill-rule="evenodd" clip-rule="evenodd" d="M401.914 41.6668H398.087C321.142 41.6664 260.84 41.6661 213.791 47.9918C165.633 54.4664 127.632 67.9777 97.805 97.8047C67.978 127.632 54.4667 165.632 47.992 213.79C41.6663 260.84 41.6667 321.141 41.667 398.087V401.913C41.6667 478.86 41.6663 539.16 47.992 586.21C54.4667 634.367 67.978 672.37 97.805 702.197C127.632 732.023 165.633 745.533 213.791 752.01C260.84 758.333 321.141 758.333 398.087 758.333H401.914C478.86 758.333 539.16 758.333 586.21 752.01C634.367 745.533 672.37 732.023 702.197 702.197C732.024 672.37 745.534 634.367 752.01 586.21C758.334 539.16 758.334 478.86 758.334 401.913V398.087C758.334 321.141 758.334 260.84 752.01 213.79C745.534 165.632 732.024 127.632 702.197 97.8047C672.37 67.9777 634.367 54.4664 586.21 47.9918C539.16 41.6661 478.86 41.6664 401.914 41.6668ZM133.16 133.16C152.149 114.171 177.839 103.275 220.453 97.5457C263.786 91.7197 320.726 91.6668 400 91.6668C479.274 91.6668 536.214 91.7197 579.547 97.5457C622.16 103.275 647.85 114.171 666.84 133.16C685.83 152.148 696.727 177.839 702.454 220.453C708.28 263.785 708.334 320.726 708.334 400C708.334 479.273 708.28 536.213 702.454 579.547C696.727 622.16 685.83 647.85 666.84 666.84C647.85 685.83 622.16 696.727 579.547 702.453C536.214 708.28 479.274 708.333 400 708.333C320.726 708.333 263.786 708.28 220.453 702.453C177.839 696.727 152.149 685.83 133.16 666.84C114.172 647.85 103.275 622.16 97.546 579.547C91.72 536.213 91.667 479.273 91.667 400C91.667 320.726 91.72 263.785 97.546 220.453C103.275 177.839 114.172 152.148 133.16 133.16Z" fill="#442A05"/>
<path d="M784.752 148.833C805.083 128.513 805.083 95.5638 784.752 75.2416C764.421 54.9195 731.464 54.9195 711.133 75.2416L400.883 385.366L298.87 283.398C278.54 263.076 245.578 263.076 225.248 283.398C204.917 303.721 204.917 336.665 225.248 356.988L364.072 495.758C384.404 516.081 417.361 516.081 437.692 495.758L784.752 148.833Z" fill="#00FFA2"/>
</svg>
