<svg width="800" height="800" viewBox="0 0 800 800" fill="none" xmlns="http://www.w3.org/2000/svg">
<path d="M574 426L532 397L574 365V426ZM497 371L417 314V221L560 322L497 371ZM395 448L329 397L395 350L461 397L395 448ZM374 314L294 371L231 323L374 222V314ZM217 365L259 397L217 426V365ZM293 423L374 485V576L231 467L293 423ZM416 485L497 423L559 467L416 576V485ZM379 164L187 303C180 308 175 317 175 326V466C175 475 179 483 186 489L378 636C388 644 402 644 413 636L605 489C612 484 616 475 616 466V326C616 317 612 308 604 303L412 164C402 157 389 157 379 164Z" fill="#442A05"/>
</svg>
