<svg width="800" height="800" viewBox="0 0 800 800" fill="none" xmlns="http://www.w3.org/2000/svg">
<path d="M659 233C626 233 600 260 600 292C600 299 601 306 603 312L483 414C475 409 465 407 454 407C443 407 432 410 423 416L355 361C357 355 358 350 358 343C358 310 331 284 299 284C266 284 240 311 240 343C240 352 242 360 245 367L159 453C152 450 143 448 135 448C102 448 76 475 76 507C76 540 103 566 135 566C167 566 194 539 194 507C194 498 192 490 189 483L275 397C282 400 291 402 299 402C310 402 321 399 330 393L399 446C397 452 397 457 397 464C397 497 424 523 456 523C488 523 515 496 515 464C515 457 514 450 512 444L632 342C640 347 650 349 661 349C694 349 720 322 720 290C719 260 691 233 659 233ZM134 525C125 525 117 517 117 508C117 498 125 491 134 491C143 491 151 499 151 508C151 517 144 525 134 525ZM281 344C281 334 289 327 298 327C307 327 315 335 315 344C315 353 307 361 298 361C289 361 281 353 281 344ZM455 482C445 482 438 474 438 465C438 456 446 448 455 448C464 448 472 456 472 465C471 475 465 482 455 482ZM659 309C650 309 642 301 642 292C642 282 650 275 659 275C669 275 676 283 676 292C676 302 668 309 659 309Z" fill="#442A05"/>
</svg>
