<svg width="800" height="800" viewBox="0 0 800 800" fill="none" xmlns="http://www.w3.org/2000/svg">
<path d="M404.5 541C326.5 541 263.5 478 263.5 400C263.5 322 326.5 259 404.5 259C482.5 259 545.5 322 545.5 400C545.5 478 482.5 541 404.5 541ZM404.5 301C349.5 301 305.5 345 305.5 400C305.5 455 349.5 499 404.5 499C459.5 499 503.5 455 503.5 400C503.5 345 459.5 301 404.5 301ZM404.5 226C392.5 226 383.5 217 383.5 205V154C383.5 142 392.5 133 404.5 133C416.5 133 425.5 142 425.5 154V205C425.5 217 416.5 226 404.5 226ZM542.5 283C537.5 283 531.5 281 527.5 277C519.5 269 519.5 256 527.5 247L563.5 211C571.5 203 584.5 203 593.5 211C601.5 219 601.5 232 593.5 241L557.5 277C552.5 281 547.5 283 542.5 283ZM599.5 421C587.5 421 578.5 412 578.5 400C578.5 388 587.5 379 599.5 379H650.5C662.5 379 671.5 388 671.5 400C671.5 412 662.5 421 650.5 421H599.5ZM578.5 595C573.5 595 567.5 593 563.5 589L527.5 552C519.5 544 519.5 531 527.5 522C535.5 514 548.5 514 557.5 522L593.5 558C601.5 566 601.5 579 593.5 588C589.5 593 583.5 595 578.5 595ZM404.5 667C392.5 667 383.5 658 383.5 646V595C383.5 583 392.5 574 404.5 574C416.5 574 425.5 583 425.5 595V646C425.5 658 416.5 667 404.5 667ZM230.5 595C225.5 595 219.5 593 215.5 589C207.5 581 207.5 568 215.5 559L251.5 523C259.5 515 272.5 515 281.5 523C290.5 531 289.5 544 281.5 553L245.5 589C241.5 593 235.5 595 230.5 595ZM158.5 421C146.5 421 137.5 412 137.5 400C137.5 388 146.5 379 158.5 379H209.5C221.5 379 230.5 388 230.5 400C230.5 412 221.5 421 209.5 421H158.5ZM266.5 283C261.5 283 255.5 281 251.5 277L215.5 241C207.5 233 207.5 220 215.5 211C223.5 203 236.5 203 245.5 211L281.5 247C289.5 255 289.5 268 281.5 277C277.5 281 272.5 283 266.5 283Z" fill="#442A05"/>
</svg>
