<svg width="800" height="800" viewBox="0 0 800 800" fill="none" xmlns="http://www.w3.org/2000/svg">
<path d="M675.5 379C669.5 342 647.5 322 607.5 316C591.5 314 566.5 313 552.5 313C528.5 313 504.5 314 489.5 316C462.5 319 440.5 333 429.5 353C419.5 350 408.5 349 395.5 349C382.5 349 370.5 350 361.5 353C349.5 333 328.5 318 301.5 316C286.5 314 262.5 313 238.5 313C224.5 313 199.5 313 183.5 316C143.5 322 121.5 343 115.5 379C113.5 390 113.5 414 115.5 425C127.5 488 191.5 488 213.5 488H225.5C339.5 488 368.5 438 371.5 394C382.5 390 411.5 390 422.5 394C425.5 438 453.5 488 568.5 488H580.5C601.5 488 666.5 488 678.5 425C677.5 414 677.5 390 675.5 379ZM223.5 446H211.5C173.5 446 158.5 438 155.5 417C154.5 411 154.5 393 155.5 386C157.5 370 163.5 360 188.5 357C198.5 356 216.5 355 237.5 355C259.5 355 282.5 356 295.5 357C310.5 359 327.5 369 327.5 387C327.5 412 316.5 446 223.5 446ZM634.5 417C630.5 438 615.5 446 578.5 446H566.5C473.5 446 462.5 412 462.5 387C462.5 369 479.5 359 494.5 357C507.5 356 530.5 355 552.5 355C573.5 355 591.5 356 601.5 357C626.5 361 632.5 370 634.5 386C635.5 393 635.5 411 634.5 417Z" fill="#442A05"/>
</svg>
