<svg width="16" height="16" viewBox="0 0 16 16" fill="none" xmlns="http://www.w3.org/2000/svg">
<g clip-path="url(#clip0_417_223)">
<path d="M15.498 8.04546C15.4975 3.90496 12.141 0.548462 7.99995 0.548462C3.85895 0.548462 0.501953 3.90546 0.501953 8.04646C0.501953 11.774 3.22195 14.866 6.78495 15.4465L6.82795 15.4525V10.2135H4.92395V8.04546H6.82795V6.39446C6.81845 6.31096 6.81345 6.21396 6.81345 6.11596C6.81345 4.65446 7.99845 3.46946 9.45995 3.46946C9.53045 3.46946 9.60045 3.47246 9.66995 3.47746L9.66095 3.47696C10.2605 3.48546 10.8405 3.53846 11.4065 3.63296L11.3395 3.62346V5.46846H10.3935C10.3505 5.46246 10.301 5.45896 10.251 5.45896C9.65245 5.45896 9.16695 5.94396 9.16695 6.54296C9.16695 6.57696 9.16845 6.61046 9.17145 6.64396L9.17095 6.63946V8.04546H11.2505L10.918 10.2135H9.17095V15.4525C12.7775 14.8655 15.4975 11.773 15.498 8.04546Z" fill="url(#paint0_linear_417_223)"/>
</g>
<defs>
<linearGradient id="paint0_linear_417_223" x1="0.501953" y1="8.00046" x2="15.498" y2="8.00046" gradientUnits="userSpaceOnUse">
<stop offset="1" stop-color="#FBC379"/>
</linearGradient>
<clipPath id="clip0_417_223">
<rect width="16" height="16" fill="white"/>
</clipPath>
</defs>
</svg>
