<svg width="113" height="30" viewBox="0 0 113 30" fill="none" xmlns="http://www.w3.org/2000/svg">
<path d="M43.2543 15.8519C42.7027 16.0501 41.6098 16.3744 40.321 16.3744C39.0322 16.3744 37.6867 16.0064 36.7511 15.1158C35.9288 14.3231 35.4185 13.0491 35.4185 11.564C35.4313 8.72 37.3877 6.64038 40.5891 6.64038C43.7904 6.64038 42.5584 6.87974 42.9708 7.07792L42.6744 8.0817C42.164 7.85521 41.5273 7.67247 40.5633 7.67247C38.2383 7.67247 36.7227 9.11636 36.7227 11.5074C36.7227 13.8984 38.1816 15.3552 40.4061 15.3552C42.6305 15.3552 41.767 15.242 42.0506 15.1004V12.2564H40.1097V11.2655H43.2543V15.8494V15.8519Z" fill="white"/>
<path d="M45.1387 6.86688C45.7624 6.74077 46.6543 6.6687 47.5049 6.6687C48.822 6.6687 49.6726 6.90806 50.2681 7.44598C50.7501 7.87066 51.0181 8.52182 51.0181 9.25793C51.0181 10.5165 50.2242 11.353 49.219 11.6901V11.7313C49.9562 11.9861 50.3944 12.6656 50.6212 13.6565C50.9331 14.9872 51.1599 15.906 51.3584 16.2741H50.0825C49.9278 16.0064 49.7139 15.1853 49.4458 13.9963C49.1623 12.6811 48.6519 12.1843 47.5332 12.1431H46.3708V16.2741H45.1387V6.86431V6.86688ZM46.3733 11.2114H47.6338C48.9509 11.2114 49.7886 10.4908 49.7886 9.39948C49.7886 8.3082 48.8968 7.6313 47.5925 7.61585C46.9971 7.61585 46.5718 7.67248 46.3733 7.7291V11.2089V11.2114Z" fill="white"/>
<path d="M53.995 6.73816V12.3825C53.995 14.5187 54.9435 15.4247 56.2194 15.4247C57.4953 15.4247 58.5444 14.4904 58.5444 12.3825V6.73816H59.792V12.2975C59.792 15.2265 58.248 16.4284 56.1782 16.4284C54.1084 16.4284 52.75 15.3114 52.75 12.3542V6.73816H53.9976H53.995Z" fill="white"/>
<path d="M61.9287 6.85144C62.5241 6.75364 63.3026 6.6687 64.2949 6.6687C65.2873 6.6687 66.406 6.95182 66.973 7.46143C67.4963 7.91441 67.8082 8.60676 67.8082 9.45611C67.8082 10.3055 67.553 10.9978 67.071 11.4945C66.4189 12.1869 65.3569 12.5421 64.1532 12.5421C62.9494 12.5421 63.4443 12.5292 63.1608 12.4571V16.2766H61.9287V6.85401V6.85144ZM63.1634 11.4508C63.4314 11.5203 63.7717 11.5486 64.1841 11.5486C65.6714 11.5486 66.5787 10.8279 66.5787 9.51016C66.5787 8.19238 65.6868 7.64159 64.3259 7.64159C62.9649 7.64159 63.3773 7.68277 63.1634 7.73939V11.4456V11.4508Z" fill="white"/>
<path d="M77.6292 11.4096C77.6292 14.6912 75.6316 16.431 73.1932 16.431C70.7548 16.431 68.8989 14.4775 68.8989 11.5923C68.8989 8.70711 70.7831 6.58374 73.3349 6.58374C75.8868 6.58374 77.6292 8.57842 77.6292 11.4096ZM70.2186 11.564C70.2186 13.6024 71.3244 15.4273 73.2654 15.4273C75.2063 15.4273 76.3249 13.6308 76.3249 11.4662C76.3249 9.30165 75.3326 7.59009 73.2782 7.59009C71.2239 7.59009 70.2186 9.47152 70.2186 11.5666V11.564Z" fill="white"/>
<path d="M82.2354 6.73816H87.3776V7.77025H83.4674V10.9386H87.0812V11.9578H83.4674V16.274H82.2354V6.73816Z" fill="white"/>
<path d="M97.2962 11.4096C97.2962 14.6912 95.2986 16.431 92.8602 16.431C90.4218 16.431 88.5659 14.4775 88.5659 11.5923C88.5659 8.70711 90.4501 6.58374 93.0019 6.58374C95.5537 6.58374 97.2962 8.57842 97.2962 11.4096ZM89.8856 11.564C89.8856 13.6024 90.9914 15.4273 92.9323 15.4273C94.8733 15.4273 95.9919 13.6308 95.9919 11.4662C95.9919 9.30165 94.9996 7.59009 92.9452 7.59009C90.8909 7.59009 89.8856 9.47152 89.8856 11.5666V11.564Z" fill="white"/>
<path d="M98.8965 6.86688C99.5203 6.74077 100.412 6.6687 101.263 6.6687C102.58 6.6687 103.43 6.90806 104.026 7.44598C104.508 7.87066 104.776 8.52182 104.776 9.25793C104.776 10.5165 103.982 11.353 102.977 11.6901V11.7313C103.714 11.9861 104.152 12.6656 104.379 13.6565C104.691 14.9872 104.918 15.906 105.116 16.2741H103.84C103.686 16.0064 103.472 15.1853 103.204 13.9963C102.92 12.6811 102.41 12.1843 101.291 12.1431H100.129V16.2741H98.8965V6.86431V6.86688ZM100.131 11.2114H101.392C102.709 11.2114 103.546 10.4908 103.546 9.39948C103.546 8.3082 102.655 7.6313 101.35 7.61585C100.755 7.61585 100.33 7.67248 100.131 7.7291V11.2089V11.2114Z" fill="white"/>
<path d="M108.462 7.78569H105.557V6.73816H112.627V7.78569H109.71V16.274H108.462V7.78569Z" fill="white"/>
<path d="M30.0469 15C30.0469 23.285 23.322 30 15.0247 30C6.72749 30 0 23.285 0 15C0 6.715 6.72749 0 15.0247 0C23.322 0 30.0469 6.715 30.0469 15ZM21.1903 3.51579C21.1903 3.51579 22.4739 5.00601 23.5308 8.53981L26.3274 8.55782C26.3274 8.55782 24.7706 5.46929 21.1877 3.51579H21.1903ZM16.5094 8.54753L21.345 8.55782C19.3808 2.87749 16.4914 2.18514 16.4914 2.18514L16.5094 8.5501V8.54753ZM14.4164 2.18257C14.4164 2.18257 11.4342 2.92382 9.52417 8.55525L14.4293 8.54496L14.4164 2.17999V2.18257ZM3.7942 8.62217H7.37704C7.37704 8.62217 8.12712 5.2917 10.0577 3.04736C9.61181 3.122 5.83823 4.79238 3.7942 8.62217ZM2.84307 10.6452C2.84307 10.6452 1.20115 14.5625 2.84307 19.2802H6.93112C6.93112 19.2802 5.83823 15.3886 6.82029 10.6452C3.00288 10.676 2.84307 10.6452 2.84307 10.6452ZM8.96741 10.6452C8.96741 10.6452 7.89256 14.9691 9.06021 19.2056H14.3958L14.4267 10.6452H8.96741ZM16.5043 10.6941V19.2673H21.8038C21.8038 19.2673 23.0024 16.516 21.8914 10.6941C16.4373 10.6941 16.5068 10.6941 16.5068 10.6941H16.5043ZM24.0875 10.5963C24.0875 10.5963 24.9948 14.6551 23.9947 19.2056L27.2992 19.2236C27.2992 19.2236 28.954 15.3681 27.2863 10.6452C24.0257 10.5963 24.0875 10.5963 24.0875 10.5963ZM20.9222 26.4585C20.9222 26.4585 24.3195 24.9966 26.33 21.3418C23.3271 21.3598 23.3838 21.3598 23.3838 21.3598C23.3838 21.3598 22.6054 24.1524 20.9222 26.4585ZM16.4991 27.6682C19.4633 26.5486 21.1877 21.3418 21.1877 21.3418H16.4991V27.6682ZM14.4164 27.7325V21.3392H9.70976C9.70976 21.3392 11.1919 26.2062 14.4164 27.7325ZM3.8638 21.3418C3.8638 21.3418 5.61398 25.1433 10.3567 27.0118C10.0784 26.6927 8.35653 24.33 7.51366 21.3418C3.78905 21.3418 3.8638 21.3418 3.8638 21.3418Z" fill="white"/>
<path d="M40.3677 19.8696H39.0093V23.3184H38.5376V19.8696H37.1792V19.4269H40.3677V19.8696Z" fill="white"/>
<path d="M47.884 22.8757V23.3184H45.0615V19.4269H47.7963V19.8696H45.5358V21.1256H47.2963V21.5683H45.5358V22.8757H47.8866H47.884Z" fill="white"/>
<path d="M54.4231 23.3751C53.3122 23.3751 52.6162 22.6029 52.6162 21.3701C52.6162 20.1372 53.325 19.3651 54.4102 19.3651C55.4954 19.3651 55.6732 19.6843 55.9207 20.2737L55.4541 20.4924C55.284 20.0446 54.9644 19.8078 54.4437 19.8078C53.6472 19.8078 53.1085 20.3843 53.1085 21.3701C53.1085 22.3558 53.6112 22.9324 54.4179 22.9324C55.2247 22.9324 55.3459 22.6673 55.516 22.1422L55.9877 22.3198C55.7402 22.9864 55.15 23.3751 54.4179 23.3751H54.4231Z" fill="white"/>
<path d="M63.9887 23.3159H63.4035L61.7745 20.7112L61.3621 19.9442H61.3569L61.3801 20.5696V23.3159H60.9316V19.4243H61.5168L63.1406 22.0187L63.5608 22.796H63.5659L63.5427 22.1705V19.4243H63.9912V23.3159H63.9887Z" fill="white"/>
<path d="M72.6675 21.3727C72.6675 22.6055 71.9715 23.3776 70.8606 23.3776C69.7497 23.3776 69.0537 22.6055 69.0537 21.3727C69.0537 20.1398 69.7497 19.3677 70.8606 19.3677C71.9715 19.3677 72.6675 20.1398 72.6675 21.3727ZM69.5486 21.3727C69.5486 22.3507 70.0512 22.9349 70.858 22.9349C71.6648 22.9349 72.1674 22.3507 72.1674 21.3727C72.1674 20.3946 71.6648 19.8104 70.858 19.8104C70.0512 19.8104 69.5486 20.3946 69.5486 21.3727Z" fill="white"/>
<path d="M80.4363 22.8757V23.3184H77.7324V19.4269H78.2041V22.8757H80.4363Z" fill="white"/>
<path d="M88.5068 21.3727C88.5068 22.6055 87.8109 23.3776 86.7 23.3776C85.589 23.3776 84.8931 22.6055 84.8931 21.3727C84.8931 20.1398 85.589 19.3677 86.7 19.3677C87.8109 19.3677 88.5068 20.1398 88.5068 21.3727ZM85.3905 21.3727C85.3905 22.3507 85.8932 22.9349 86.7 22.9349C87.5067 22.9349 88.0094 22.3507 88.0094 21.3727C88.0094 20.3946 87.5067 19.8104 86.7 19.8104C85.8932 19.8104 85.3905 20.3946 85.3905 21.3727Z" fill="white"/>
<path d="M96.7419 21.3546V23.3184H96.3888L96.3707 22.7934C96.1465 23.1589 95.7392 23.3776 95.1438 23.3776C94.0329 23.3776 93.3369 22.6055 93.3369 21.3727C93.3369 20.1398 94.0638 19.3677 95.1541 19.3677C96.2444 19.3677 96.412 19.6559 96.7135 20.2582L96.2831 20.495C96.113 20.0472 95.698 19.8104 95.1567 19.8104C94.3654 19.8104 93.8344 20.3946 93.8344 21.3727C93.8344 22.3507 94.2958 22.9349 95.1618 22.9349C96.0279 22.9349 96.314 22.6055 96.314 21.9337V21.7973H95.0742V21.3546H96.7445H96.7419Z" fill="white"/>
<path d="M102.346 23.3159H101.874V19.4243H102.346V23.3159Z" fill="white"/>
<path d="M109.602 22.2375H107.836L107.424 23.3159H106.929L108.447 19.4243H109.009L110.519 23.3159H110.017L109.604 22.2375H109.602ZM109.429 21.7948L108.903 20.4152L108.72 19.8722H108.707L108.537 20.3972L108.006 21.7948H109.429Z" fill="white"/>
</svg>
