<svg width="800" height="800" viewBox="0 0 800 800" fill="none" xmlns="http://www.w3.org/2000/svg">
<path d="M146 324H659C671 324 680 315 680 303C680 294 675 287 667 284L412 154C406 151 399 151 393 154L137 284C128 288 124 298 126 308C129 317 136 324 146 324ZM403 197L571 282H235L403 197ZM659 606H618V372C618 360 609 351 597 351C585 351 576 360 576 372V606H488V372C488 360 479 351 467 351C456 351 446 360 446 372V606H358V372C358 360 349 351 337 351C325 351 316 360 316 372V606H229V372C229 360 220 351 208 351C196 351 188 360 188 372V606H147C135 606 126 615 126 627C126 639 135 648 147 648H660C672 648 681 639 681 627C681 615 671 606 659 606Z" fill="#442A05"/>
</svg>
