<svg width="30" height="30" viewBox="0 0 30 30" fill="none" xmlns="http://www.w3.org/2000/svg">
<g clip-path="url(#clip0_158_881)">
<path d="M24.1923 7.49641V7.49734C24.1923 8.42922 23.4367 9.18391 22.5058 9.18391C21.5748 9.18391 20.8192 8.42828 20.8192 7.49734C20.8192 6.56547 21.5748 5.81078 22.5058 5.81078C23.4367 5.81172 24.1914 6.56547 24.1923 7.49641ZM15.0002 19.6867C12.4117 19.6867 10.3136 17.5886 10.3136 15.0002C10.3136 12.4117 12.4117 10.3136 15.0002 10.3136C17.5886 10.3136 19.6867 12.4117 19.6867 15.0002C19.6867 17.5877 17.5895 19.6858 15.002 19.6858H15.0011L15.0002 19.6867ZM15.0002 7.78141C11.013 7.78141 7.78141 11.0139 7.78141 15.0002C7.78141 18.9864 11.0139 22.2189 15.0002 22.2189C18.9873 22.2189 22.2189 18.9864 22.2189 15.0002C22.2189 15.0002 22.2189 15.0002 22.2189 14.9992C22.2189 11.013 18.9873 7.78047 15.0002 7.78047C15.0002 7.78047 15.0002 7.78047 14.9992 7.78047L15.0002 7.78141ZM15.0002 3.47266C18.753 3.47266 19.2002 3.49141 20.6823 3.55609C21.6227 3.56734 22.517 3.74547 23.3448 4.06047L23.2914 4.04266C24.5233 4.52266 25.4795 5.47891 25.9492 6.67891L25.9605 6.71078C26.2567 7.48516 26.433 8.38047 26.4442 9.31516V9.31984C26.5108 10.803 26.5258 11.2483 26.5258 15.002C26.5258 18.7558 26.508 19.202 26.4395 20.6842C26.4217 21.6255 26.2427 22.5198 25.9286 23.3477L25.9464 23.2933C25.7045 23.927 25.3464 24.467 24.8936 24.9114L24.8927 24.9123C24.4492 25.3661 23.9092 25.7242 23.3064 25.952L23.2764 25.9623C22.4992 26.2586 21.6011 26.4348 20.6627 26.4461H20.658C19.1655 26.5127 18.7258 26.5277 14.9655 26.5277C11.2033 26.5277 10.7645 26.5098 9.27297 26.4414C8.32797 26.4236 7.42984 26.2445 6.59828 25.9305L6.65359 25.9483C6.01984 25.7102 5.47984 25.3511 5.03922 24.8964L5.03828 24.8955C4.57984 24.4548 4.21984 23.9139 3.99391 23.3083L3.98453 23.2792C3.68922 22.503 3.51016 21.6058 3.49234 20.6683V20.6608C3.43984 19.1842 3.42109 18.7286 3.42109 14.9861C3.42109 11.2417 3.43984 10.7852 3.49234 9.29078C3.51016 8.34672 3.68828 7.44953 4.00234 6.61891L3.98453 6.67422C4.21609 6.03766 4.57703 5.49578 5.03734 5.05797L5.03922 5.05609C5.47797 4.59484 6.01891 4.23578 6.62547 4.01359L6.65453 4.00422C7.42609 3.70609 8.31766 3.52703 9.24953 3.51109H9.25609C10.7495 3.45859 11.1892 3.44078 14.9486 3.44078L15.0002 3.47266ZM15.0002 0.941406C11.1808 0.941406 10.7045 0.959219 9.20453 1.02578C7.97172 1.05203 6.80266 1.29016 5.72078 1.70359L5.79203 1.68016C4.81703 2.05234 3.98641 2.60453 3.30203 3.30016L3.30109 3.30109C2.60266 3.98547 2.05141 4.81703 1.69516 5.74516L1.67922 5.79203C1.28922 6.80266 1.05109 7.97266 1.02578 9.19328V9.20453C0.955469 10.7045 0.941406 11.1808 0.941406 15.0002C0.941406 18.8195 0.959219 19.2958 1.02578 20.7958C1.05203 22.0286 1.29016 23.1977 1.70359 24.2795L1.68016 24.2083C2.42641 26.103 3.89734 27.5739 5.74328 28.3033L5.79203 28.3202C6.80266 28.7092 7.97266 28.9473 9.19328 28.9736H9.20453C10.7045 29.0439 11.1808 29.058 15.0002 29.058C18.8195 29.058 19.2958 29.0402 20.7958 28.9736C22.0286 28.9464 23.1977 28.7092 24.2795 28.2958L24.2083 28.3202C26.103 27.5739 27.5739 26.103 28.3033 24.257L28.3202 24.2083C28.7102 23.1977 28.9473 22.0277 28.9736 20.807V20.7958C29.0439 19.2958 29.058 18.8195 29.058 15.0002C29.058 11.1808 29.0402 10.7045 28.9736 9.20453C28.9464 7.97172 28.7092 6.80266 28.2958 5.72078L28.3202 5.79203C27.947 4.81703 27.3958 3.98641 26.6992 3.30203L26.6983 3.30109C26.0139 2.60266 25.1823 2.05141 24.2542 1.69516L24.2073 1.67922C23.1967 1.28922 22.0267 1.05109 20.8061 1.02578H20.7948C19.2948 0.955469 18.8186 0.941406 14.9992 0.941406H15.0002Z" fill="#FBC379"/>
</g>
<defs>
<clipPath id="clip0_158_881">
<rect width="30" height="30" fill="white"/>
</clipPath>
</defs>
</svg>
