<svg width="800" height="800" viewBox="0 0 800 800" fill="none" xmlns="http://www.w3.org/2000/svg">
<path d="M353.5 182V617C353.5 629 344.5 638 332.5 638C320.5 638 311.5 629 311.5 617V245L275.5 293C268.5 302 255.5 304 245.5 297C236.5 290 234.5 277 241.5 267L316.5 170C321.5 163 331.5 160 340.5 163C348.5 165 353.5 173 353.5 182ZM568.5 520C568.5 524 567.5 529 564.5 533L489.5 630C484.5 637 474.5 640 465.5 637C456.5 634 451.5 626 451.5 617V182C451.5 170 460.5 161 472.5 161C484.5 161 493.5 170 493.5 182V555L529.5 507C536.5 498 549.5 496 559.5 503C565.5 507 568.5 513 568.5 520Z" fill="#442A05"/>
</svg>
