<svg width="800" height="800" viewBox="0 0 800 800" fill="none" xmlns="http://www.w3.org/2000/svg">
<path d="M238.5 503C216.5 503 192.5 494 174.5 480C158.5 466 138.5 442 138.5 400C138.5 331 195.5 300 232.5 297C277.5 293 338.5 331 402.5 375C465.5 333 524.5 295 569.5 297C605.5 299 659.5 328 659.5 400C659.5 470 606.5 500 571.5 503C569.5 503 567.5 503 565.5 503C521.5 503 463.5 466 402.5 425C339.5 466 283.5 503 238.5 503ZM238.5 339C237.5 339 236.5 339 235.5 339C220.5 340 180.5 354 180.5 400C180.5 450 217.5 459 239.5 461C268.5 464 317.5 431 365.5 400C315.5 369 268.5 339 238.5 339ZM439.5 400C488.5 433 539.5 463 567.5 461C584.5 460 617.5 445 617.5 400C617.5 354 584.5 340 566.5 339C537.5 337 487.5 368 439.5 400Z" fill="#442A05"/>
</svg>
