<svg width="800" height="800" viewBox="0 0 800 800" fill="none" xmlns="http://www.w3.org/2000/svg">
<path d="M404 674C382 674 363 664 353 647L227 422C210 393 200 359 200 324C200 215 292 126 404 126C517 126 608 215 608 324C608 359 598 393 580 423L456 646C445 664 426 674 404 674ZM404 168C315 168 242 238 242 324C242 351 249 378 264 402L390 626C392 630 398 632 405 632C412 632 418 629 420 625L545 402C559 378 567 351 567 324C566 238 494 168 404 168ZM404 404C363 404 330 370 330 330C330 289 363 256 404 256C445 256 478 289 478 330C478 370 445 404 404 404ZM404 298C386 298 372 312 372 330C372 348 386 362 404 362C422 362 436 348 436 330C436 312 422 298 404 298Z" fill="#442A05"/>
</svg>
