<svg width="30" height="30" viewBox="0 0 30 30" fill="none" xmlns="http://www.w3.org/2000/svg">
<g clip-path="url(#clip0_158_877)">
<path d="M26.9796 0.941406H3.01707C3.00957 0.941406 3.00113 0.941406 2.99176 0.941406C1.8677 0.941406 0.955508 1.84516 0.942383 2.96547V27.033C0.955508 28.1542 1.8677 29.0589 2.99176 29.0589C3.00113 29.0589 3.00957 29.0589 3.01895 29.0589H26.9768C26.9843 29.0589 26.9936 29.0589 27.003 29.0589C28.128 29.0589 29.0421 28.1561 29.0599 27.0348V27.033V2.96734C29.0421 1.84516 28.128 0.941406 27.0021 0.941406C26.9927 0.941406 26.9843 0.941406 26.9749 0.941406H26.9796ZM9.28144 24.902H5.10582V11.4855H9.28144V24.902ZM7.19457 9.64984C5.85863 9.64984 4.77676 8.56703 4.77676 7.23203C4.77676 5.89703 5.85957 4.81422 7.19457 4.81422C8.52957 4.81422 9.61238 5.89609 9.61238 7.23109C9.61238 7.23203 9.61238 7.23297 9.61238 7.23484C9.61238 8.56891 8.53051 9.65078 7.19644 9.65078C7.19551 9.65078 7.19457 9.65078 7.19363 9.65078L7.19457 9.64984ZM24.8964 24.902H20.733V18.378C20.733 16.8217 20.7011 14.8202 18.5636 14.8202C16.3924 14.8202 16.0614 16.5133 16.0614 18.2636V24.903H11.898V11.4864H15.8974V13.3155H15.9518C16.728 12.0077 18.1324 11.1452 19.7383 11.1452C19.7955 11.1452 19.8518 11.1461 19.908 11.148H19.8996C24.1183 11.148 24.8983 13.9248 24.8983 17.5389V24.903L24.8964 24.902Z" fill="#FBC379"/>
</g>
<defs>
<clipPath id="clip0_158_877">
<rect width="30" height="30" fill="white"/>
</clipPath>
</defs>
</svg>
