<svg width="16" height="16" viewBox="0 0 16 16" fill="none" xmlns="http://www.w3.org/2000/svg">
<g clip-path="url(#clip0_417_219)">
<path d="M14.3889 0.501953H1.60894C1.60494 0.501953 1.60044 0.501953 1.59544 0.501953C0.995941 0.501953 0.509441 0.983953 0.502441 1.58145V14.4175C0.509441 15.0155 0.995941 15.498 1.59544 15.498C1.60044 15.498 1.60494 15.498 1.60994 15.498H14.3874C14.3914 15.498 14.3964 15.498 14.4014 15.498C15.0014 15.498 15.4889 15.0165 15.4984 14.4185V14.4175V1.58245C15.4889 0.983953 15.0014 0.501953 14.4009 0.501953C14.3959 0.501953 14.3914 0.501953 14.3864 0.501953H14.3889ZM4.94994 13.281H2.72294V6.12545H4.94994V13.281ZM3.83694 5.14645C3.12444 5.14645 2.54744 4.56895 2.54744 3.85695C2.54744 3.14495 3.12494 2.56745 3.83694 2.56745C4.54894 2.56745 5.12644 3.14445 5.12644 3.85645C5.12644 3.85695 5.12644 3.85745 5.12644 3.85845C5.12644 4.56995 4.54944 5.14695 3.83794 5.14695C3.83744 5.14695 3.83694 5.14695 3.83644 5.14695L3.83694 5.14645ZM13.2779 13.281H11.0574V9.80145C11.0574 8.97145 11.0404 7.90395 9.90044 7.90395C8.74244 7.90395 8.56594 8.80695 8.56594 9.74045V13.2815H6.34544V6.12595H8.47844V7.10145H8.50744C8.92144 6.40395 9.67044 5.94395 10.5269 5.94395C10.5574 5.94395 10.5874 5.94445 10.6174 5.94545H10.6129C12.8629 5.94545 13.2789 7.42645 13.2789 9.35395V13.2815L13.2779 13.281Z" fill="url(#paint0_linear_417_219)"/>
</g>
<defs>
<linearGradient id="paint0_linear_417_219" x1="0.502441" y1="7.99995" x2="15.4984" y2="7.99995" gradientUnits="userSpaceOnUse">
<stop offset="1" stop-color="#FBC379"/>
</linearGradient>
<clipPath id="clip0_417_219">
<rect width="16" height="16" fill="white"/>
</clipPath>
</defs>
</svg>
