<svg width="795" height="276" viewBox="0 0 795 276" fill="none" xmlns="http://www.w3.org/2000/svg">
<path fill-rule="evenodd" clip-rule="evenodd" d="M173.994 32.9166C173.994 30.7074 172.203 28.9166 169.994 28.9166H32.999C30.7898 28.9166 28.9989 30.7074 28.9989 32.9166V137.02C28.9989 158.011 42.6392 178.721 63.1661 196.181C72.9744 204.524 83.1887 211.079 91.4894 215.43C94.1703 216.836 96.5135 217.938 98.4508 218.767C99.3885 219.167 100.447 219.168 101.386 218.771C103.469 217.889 106.01 216.701 108.93 215.179C117.598 210.662 128.269 203.901 138.52 195.383C160.213 177.357 173.994 156.706 173.994 137.02V32.9166ZM96.6019 220.516C96.6024 220.515 96.6373 220.506 96.7044 220.491C96.6348 220.509 96.6013 220.517 96.6019 220.516ZM103.092 220.482C103.168 220.499 103.208 220.509 103.209 220.51C103.21 220.511 103.171 220.503 103.092 220.482ZM198.993 0C201.202 0 202.993 1.79086 202.993 4V137.02C202.993 202.416 114.925 249.127 99.9348 249.127C84.9446 249.127 0 203.973 0 137.02V4C0 1.79086 1.79085 0 3.99999 0H198.993Z" fill="white"/>
<path fill-rule="evenodd" clip-rule="evenodd" d="M157.75 66.2195C158.665 66.8383 158.905 68.0816 158.286 68.9966L103.083 150.635C102.323 151.759 100.688 151.816 99.8516 150.748L59.5865 99.346C58.9054 98.4765 59.0581 97.2194 59.9277 96.5382L79.5834 81.1412C80.4529 80.4601 81.71 80.6128 82.3912 81.4824L98.1317 101.577C98.9683 102.645 100.603 102.587 101.363 101.464L134.289 52.77C134.908 51.855 136.151 51.6148 137.066 52.2336L157.75 66.2195Z" fill="white"/>
<path d="M758.663 251.759C754.755 251.759 751.356 251.046 748.463 249.618C745.57 248.19 743.335 246.181 741.757 243.588C740.179 240.959 739.39 237.859 739.39 234.29C739.39 231.36 740.141 228.693 741.644 226.288C743.147 223.846 745.514 221.837 748.745 220.259C751.975 218.643 756.164 217.573 761.311 217.047C766.458 216.483 772.675 216.577 779.964 217.328L780.245 224.936C774.61 224.185 769.82 223.903 765.876 224.091C761.931 224.241 758.738 224.767 756.296 225.668C753.854 226.533 752.051 227.697 750.886 229.162C749.759 230.59 749.195 232.205 749.195 234.009C749.195 236.901 750.229 239.174 752.295 240.827C754.399 242.443 757.273 243.25 760.917 243.25C764.035 243.25 766.815 242.687 769.257 241.56C771.736 240.395 773.69 238.798 775.117 236.77C776.582 234.704 777.315 232.318 777.315 229.613V214.173C777.315 211.58 776.733 209.326 775.568 207.41C774.441 205.494 772.769 204.011 770.553 202.959C768.336 201.907 765.613 201.381 762.382 201.381C759.489 201.381 756.615 201.813 753.76 202.677C750.905 203.541 748.162 204.95 745.532 206.903L742.377 198.901C745.796 196.572 749.327 194.938 752.971 193.999C756.615 193.059 760.109 192.59 763.452 192.59C768.524 192.59 772.844 193.398 776.413 195.013C779.982 196.591 782.706 198.976 784.584 202.17C786.463 205.363 787.402 209.345 787.402 214.116V250.069H777.879V243.307C775.963 246.049 773.314 248.153 769.933 249.618C766.552 251.046 762.795 251.759 758.663 251.759Z" fill="white"/>
<path d="M715.104 250.069V194.844H725.473V250.069H715.104ZM720.289 184.419C718.335 184.419 716.645 183.762 715.217 182.447C713.789 181.132 713.076 179.479 713.076 177.488C713.076 175.421 713.789 173.75 715.217 172.472C716.645 171.157 718.335 170.5 720.289 170.5C722.28 170.5 723.97 171.157 725.36 172.472C726.788 173.75 727.502 175.421 727.502 177.488C727.502 179.479 726.788 181.132 725.36 182.447C723.97 183.762 722.28 184.419 720.289 184.419Z" fill="white"/>
<path d="M669.995 275.427C665.862 275.427 662.143 275.052 658.837 274.3C655.569 273.549 652.77 272.478 650.441 271.088C648.111 269.736 646.327 268.083 645.087 266.129C643.885 264.176 643.284 261.997 643.284 259.592C643.284 257.601 643.81 255.76 644.862 254.07C645.914 252.417 647.473 250.989 649.539 249.787C651.605 248.547 654.16 247.608 657.203 246.97C654.986 245.88 653.315 244.659 652.188 243.307C651.098 241.917 650.553 240.32 650.553 238.517C650.553 236.976 651.004 235.549 651.906 234.234C652.807 232.882 654.066 231.679 655.681 230.627C657.334 229.538 659.288 228.655 661.542 227.979C663.834 227.265 666.351 226.814 669.093 226.626L671.629 231.473C669.225 231.473 667.14 231.679 665.374 232.093C663.646 232.506 662.293 233.107 661.317 233.896C660.377 234.647 659.908 235.549 659.908 236.601C659.908 238.028 660.697 239.043 662.275 239.644C663.89 240.207 666.05 240.602 668.755 240.827L678.222 241.56C682.918 241.935 686.9 242.706 690.169 243.87C693.437 245.035 695.936 246.65 697.664 248.716C699.392 250.783 700.256 253.394 700.256 256.549C700.256 259.217 699.523 261.696 698.058 263.988C696.631 266.317 694.583 268.327 691.916 270.017C689.248 271.708 686.055 273.023 682.336 273.962C678.617 274.939 674.503 275.427 669.995 275.427ZM670.784 267.876C676.757 267.876 681.453 266.956 684.872 265.115C688.29 263.274 690 260.907 690 258.015C690 255.798 688.816 254.051 686.45 252.774C684.12 251.534 680.589 250.745 675.855 250.407L665.825 249.674C663.195 249.862 660.941 250.332 659.063 251.083C657.184 251.872 655.738 252.886 654.723 254.126C653.747 255.366 653.258 256.775 653.258 258.353C653.258 260.231 653.972 261.884 655.4 263.312C656.827 264.739 658.837 265.847 661.429 266.636C664.059 267.463 667.177 267.876 670.784 267.876ZM670.502 232.431C665.994 232.431 661.918 231.567 658.274 229.838C654.667 228.073 651.793 225.706 649.652 222.738C647.548 219.77 646.496 216.446 646.496 212.764C646.496 209.12 647.548 205.814 649.652 202.846C651.793 199.878 654.686 197.53 658.33 195.802C661.974 194.036 666.031 193.153 670.502 193.153C675.01 193.153 679.067 194.036 682.674 195.802C686.318 197.53 689.192 199.878 691.296 202.846C693.437 205.814 694.508 209.12 694.508 212.764C694.508 216.446 693.437 219.77 691.296 222.738C689.192 225.706 686.337 228.073 682.73 229.838C679.124 231.567 675.048 232.431 670.502 232.431ZM670.502 224.203C673.282 224.203 675.724 223.734 677.828 222.794C679.969 221.818 681.641 220.484 682.843 218.794C684.045 217.065 684.646 215.055 684.646 212.764C684.646 209.383 683.331 206.64 680.702 204.536C678.109 202.395 674.71 201.324 670.502 201.324C667.722 201.324 665.261 201.813 663.12 202.79C661.016 203.766 659.363 205.119 658.161 206.847C656.996 208.537 656.414 210.51 656.414 212.764C656.414 216.145 657.71 218.906 660.302 221.048C662.932 223.151 666.332 224.203 670.502 224.203ZM679.237 203.353L675.405 195.802L703.919 194.844L703.806 203.635L679.237 203.353Z" fill="white"/>
<path d="M605.457 251.759C599.747 251.759 594.657 250.426 590.186 247.758C585.715 245.091 582.203 241.541 579.648 237.108C577.093 232.675 575.816 227.791 575.816 222.456C575.816 218.512 576.549 214.774 578.014 211.242C579.479 207.711 581.545 204.593 584.213 201.888C586.88 199.145 590.017 197.004 593.623 195.464C597.23 193.923 601.175 193.153 605.457 193.153C611.205 193.153 616.314 194.487 620.785 197.154C625.256 199.822 628.768 203.372 631.323 207.805C633.878 212.238 635.155 217.122 635.155 222.456C635.155 226.401 634.422 230.139 632.957 233.67C631.492 237.202 629.426 240.32 626.758 243.025C624.091 245.73 620.954 247.871 617.348 249.449C613.741 250.989 609.778 251.759 605.457 251.759ZM605.457 242.405C609.177 242.405 612.464 241.597 615.319 239.982C618.212 238.329 620.485 236.018 622.138 233.051C623.791 230.045 624.617 226.514 624.617 222.456C624.617 218.361 623.791 214.83 622.138 211.862C620.522 208.857 618.268 206.546 615.375 204.931C612.483 203.315 609.177 202.508 605.457 202.508C601.738 202.508 598.432 203.315 595.539 204.931C592.684 206.546 590.43 208.857 588.777 211.862C587.162 214.83 586.354 218.361 586.354 222.456C586.354 226.514 587.162 230.045 588.777 233.051C590.43 236.018 592.703 238.329 595.596 239.982C598.488 241.597 601.776 242.405 605.457 242.405Z" fill="white"/>
<path d="M552.432 250.069V168.922H562.801V250.069H552.432Z" fill="white"/>
<path d="M509.703 251.759C503.993 251.759 498.902 250.426 494.432 247.758C489.961 245.091 486.448 241.541 483.894 237.108C481.339 232.675 480.062 227.791 480.062 222.456C480.062 218.512 480.794 214.774 482.26 211.242C483.725 207.711 485.791 204.593 488.458 201.888C491.126 199.145 494.262 197.004 497.869 195.464C501.476 193.923 505.42 193.153 509.703 193.153C515.451 193.153 520.56 194.487 525.031 197.154C529.501 199.822 533.014 203.372 535.569 207.805C538.123 212.238 539.4 217.122 539.4 222.456C539.4 226.401 538.668 230.139 537.203 233.67C535.738 237.202 533.671 240.32 531.004 243.025C528.337 245.73 525.2 247.871 521.593 249.449C517.987 250.989 514.023 251.759 509.703 251.759ZM509.703 242.405C513.422 242.405 516.709 241.597 519.565 239.982C522.457 238.329 524.73 236.018 526.383 233.051C528.036 230.045 528.863 226.514 528.863 222.456C528.863 218.361 528.036 214.83 526.383 211.862C524.768 208.857 522.514 206.546 519.621 204.931C516.728 203.315 513.422 202.508 509.703 202.508C505.984 202.508 502.678 203.315 499.785 204.931C496.93 206.546 494.676 208.857 493.023 211.862C491.407 214.83 490.6 218.361 490.6 222.456C490.6 226.514 491.407 230.045 493.023 233.051C494.676 236.018 496.949 238.329 499.841 239.982C502.734 241.597 506.021 242.405 509.703 242.405Z" fill="white"/>
<path d="M417.055 250.069V194.844H427.424V202.282C429.791 199.052 432.552 196.722 435.708 195.295C438.863 193.867 442.094 193.153 445.4 193.153C450.397 193.153 454.529 194.168 457.798 196.196C461.104 198.187 463.564 200.742 465.18 203.86C466.833 206.978 467.659 210.172 467.659 213.44V250.069H457.291V216.652C457.291 212.482 455.994 209.139 453.402 206.621C450.81 204.067 447.279 202.79 442.808 202.79C439.878 202.79 437.248 203.447 434.919 204.762C432.627 206.039 430.805 207.861 429.453 210.228C428.1 212.595 427.424 215.318 427.424 218.399V250.069H417.055Z" fill="white"/>
<path d="M384.731 251.759C378.908 251.759 373.743 250.482 369.234 247.928C364.726 245.373 361.195 241.898 358.64 237.502C356.086 233.069 354.808 228.054 354.808 222.456C354.808 218.211 355.56 214.304 357.062 210.735C358.603 207.166 360.763 204.067 363.543 201.437C366.323 198.807 369.573 196.779 373.292 195.351C377.049 193.886 381.144 193.153 385.577 193.153C389.183 193.153 392.508 193.623 395.551 194.562C398.594 195.501 401.411 196.948 404.004 198.901L398.707 206.903C397.016 205.438 395.044 204.349 392.79 203.635C390.536 202.883 388.15 202.508 385.633 202.508C381.5 202.508 377.913 203.297 374.87 204.875C371.864 206.415 369.535 208.669 367.882 211.637C366.229 214.605 365.403 218.174 365.403 222.344C365.403 228.618 367.206 233.539 370.812 237.108C374.456 240.639 379.378 242.405 385.577 242.405C388.432 242.405 391.099 241.898 393.579 240.884C396.058 239.832 398.087 238.479 399.665 236.826L405.018 244.715C402.125 246.894 398.951 248.623 395.495 249.9C392.038 251.14 388.451 251.759 384.731 251.759Z" fill="white"/>
<path d="M320.288 251.759C314.427 251.759 309.261 250.538 304.791 248.097C300.32 245.655 296.826 242.255 294.309 237.897C291.792 233.501 290.534 228.392 290.534 222.569C290.534 218.361 291.247 214.454 292.675 210.848C294.14 207.241 296.169 204.123 298.761 201.493C301.391 198.864 304.453 196.816 307.946 195.351C311.478 193.886 315.31 193.153 319.442 193.153C323.913 193.153 327.895 193.942 331.389 195.52C334.92 197.098 337.832 199.314 340.123 202.17C342.453 204.987 344.124 208.312 345.139 212.144C346.153 215.938 346.36 220.071 345.759 224.541H300.79C300.677 228.223 301.428 231.454 303.044 234.234C304.659 236.976 306.988 239.118 310.031 240.658C313.112 242.198 316.756 242.969 320.964 242.969C324.044 242.969 327.05 242.48 329.98 241.503C332.91 240.527 335.503 239.08 337.757 237.164L342.152 244.884C340.349 246.35 338.208 247.608 335.728 248.66C333.286 249.674 330.731 250.445 328.064 250.971C325.397 251.496 322.805 251.759 320.288 251.759ZM301.353 216.483H335.39C335.24 211.825 333.793 208.199 331.051 205.607C328.308 202.977 324.382 201.662 319.273 201.662C314.314 201.662 310.219 202.977 306.988 205.607C303.758 208.199 301.879 211.825 301.353 216.483Z" fill="white"/>
<path d="M256.376 250.069V180.925H233.779V171.176H289.567V180.925H266.97V250.069H256.376Z" fill="white"/>
<path d="M714.876 146.011V38.3804H677.331V0.000488281H794.765V38.3804H757.219V146.011H714.876Z" fill="white"/>
<path d="M544.012 146.011V0.000488281H605.963C617.365 0.000488281 627.308 1.77348 635.791 5.31945C644.343 8.86542 650.948 14.0453 655.606 20.8592C660.334 27.6035 662.698 35.8079 662.698 45.4724C662.698 52.5643 661.447 58.7872 658.944 64.1409C656.441 69.4946 653.103 74.014 648.932 77.699C644.76 81.384 640.171 84.2695 635.165 86.3554L671.25 146.011H621.607L594.282 95.7418H586.147V146.011H544.012ZM586.147 62.5765H601.582C607.353 62.5765 611.873 61.5336 615.14 59.4477C618.478 57.3618 620.147 53.6768 620.147 48.3926C620.147 43.0389 618.478 39.3538 615.14 37.3375C611.873 35.2516 607.423 34.2087 601.791 34.2087H586.147V62.5765Z" fill="white"/>
<path d="M442.371 152.269C430.968 152.269 420.469 150.357 410.874 146.533C401.279 142.639 392.936 137.25 385.844 130.367C378.821 123.484 373.363 115.418 369.47 106.171C365.646 96.9237 363.734 86.9116 363.734 76.1346C363.734 65.2881 365.646 55.2412 369.47 45.9938C373.363 36.7465 378.821 28.6811 385.844 21.7978C392.936 14.9144 401.279 9.5607 410.874 5.73661C420.469 1.91253 430.968 0.000488281 442.371 0.000488281C453.774 0.000488281 464.238 1.9473 473.763 5.84091C483.358 9.73453 491.667 15.1578 498.689 22.1107C505.781 29.0636 511.274 37.1637 515.168 46.411C519.061 55.5888 521.008 65.4967 521.008 76.1346C521.008 86.9116 519.061 96.9237 515.168 106.171C511.274 115.418 505.781 123.484 498.689 130.367C491.667 137.25 483.358 142.639 473.763 146.533C464.238 150.357 453.774 152.269 442.371 152.269ZM442.371 112.846C447.446 112.846 452.07 112.011 456.242 110.343C460.483 108.605 464.133 106.136 467.193 102.938C470.252 99.7396 472.616 95.8808 474.285 91.3614C475.953 86.842 476.788 81.7664 476.788 76.1346C476.788 68.6255 475.328 62.1245 472.407 56.6317C469.487 51.139 465.42 46.8977 460.205 43.908C455.06 40.9182 449.115 39.4234 442.371 39.4234C437.295 39.4234 432.637 40.2925 428.396 42.0307C424.224 43.6994 420.608 46.1329 417.549 49.3312C414.49 52.5295 412.126 56.3884 410.457 60.9078C408.788 65.4271 407.954 70.5028 407.954 76.1346C407.954 83.6437 409.414 90.1447 412.334 95.6374C415.255 101.13 419.287 105.371 424.432 108.361C429.647 111.351 435.627 112.846 442.371 112.846Z" fill="white"/>
<path d="M246.411 146.011V0.000488281H346.532V38.3804H288.545V60.6992H340.066V97.4105H288.545V146.011H246.411Z" fill="white"/>
</svg>
