<svg width="88" height="30" viewBox="0 0 88 30" fill="none" xmlns="http://www.w3.org/2000/svg">
<path fill-rule="evenodd" clip-rule="evenodd" d="M19.5791 7.14964C19.5791 4.9405 17.7883 3.14964 15.5791 3.14964H7.78605C5.57691 3.14964 3.78605 4.9405 3.78605 7.14964V14.9244C3.78605 17.2108 5.27177 19.4666 7.5076 21.3684C8.57593 22.2771 9.68849 22.9911 10.5926 23.465C11.1694 23.7674 11.8518 23.7677 12.4307 23.4695C12.4511 23.4591 12.4716 23.4484 12.4923 23.4376C13.4364 22.9457 14.5987 22.2092 15.7153 21.2814C18.0782 19.318 19.5791 17.0686 19.5791 14.9244V7.14964ZM11.1495 24.0189C11.1495 24.0188 11.1533 24.0178 11.1606 24.0163C11.1531 24.0182 11.1494 24.019 11.1495 24.0189ZM11.8564 24.0153C11.8647 24.0171 11.869 24.0182 11.8691 24.0183C11.8692 24.0184 11.865 24.0175 11.8564 24.0153ZM18.7377 0C20.9469 0 22.7377 1.79086 22.7377 4V14.9244C22.7377 22.0475 13.1453 27.1354 11.5125 27.1354C9.87975 27.1354 0.627441 22.2171 0.627441 14.9244V4C0.627441 1.79086 2.4183 0 4.62744 0H18.7377Z" fill="white"/>
<path fill-rule="evenodd" clip-rule="evenodd" d="M16.6834 7.45097C17.4052 7.93904 17.5946 8.91981 17.1066 9.64159L13.2259 15.3805C12.466 16.5044 10.8313 16.5616 9.9947 15.4936L7.95627 12.8913C7.41897 12.2054 7.53944 11.2138 8.22536 10.6765L8.37344 10.5605C8.97757 10.0873 9.85095 10.1934 10.3242 10.7975C10.9054 11.5395 12.0411 11.4998 12.5691 10.719L14.4928 7.87416C14.9808 7.15238 15.9616 6.96291 16.6834 7.45097Z" fill="white"/>
<path d="M83.2623 27.422C82.8367 27.422 82.4664 27.3443 82.1513 27.1888C81.8362 27.0333 81.5927 26.8144 81.4209 26.532C81.249 26.2456 81.1631 25.908 81.1631 25.5193C81.1631 25.2001 81.2449 24.9096 81.4086 24.6477C81.5723 24.3817 81.8301 24.1628 82.182 23.9909C82.5339 23.815 82.9901 23.6983 83.5507 23.641C84.1113 23.5797 84.7886 23.5899 85.5824 23.6717L85.6131 24.5004C84.9993 24.4185 84.4776 24.3878 84.0479 24.4083C83.6183 24.4247 83.2704 24.4819 83.0045 24.5802C82.7385 24.6743 82.5421 24.8011 82.4152 24.9607C82.2925 25.1162 82.2311 25.2922 82.2311 25.4886C82.2311 25.8037 82.3436 26.0512 82.5687 26.2313C82.7978 26.4072 83.1109 26.4952 83.5078 26.4952C83.8474 26.4952 84.1502 26.4338 84.4162 26.3111C84.6863 26.1842 84.8991 26.0103 85.0546 25.7893C85.2141 25.5643 85.2939 25.3044 85.2939 25.0098V23.328C85.2939 23.0457 85.2305 22.8001 85.1037 22.5915C84.9809 22.3828 84.7988 22.2211 84.5574 22.1066C84.316 21.992 84.0193 21.9347 83.6674 21.9347C83.3523 21.9347 83.0393 21.9817 82.7283 22.0759C82.4173 22.17 82.1186 22.3234 81.8321 22.5362L81.4884 21.6646C81.8608 21.4109 82.2454 21.2329 82.6423 21.1306C83.0393 21.0283 83.4198 20.9772 83.784 20.9772C84.3364 20.9772 84.807 21.0651 85.1957 21.2411C85.5845 21.413 85.8811 21.6728 86.0857 22.0206C86.2903 22.3684 86.3926 22.8022 86.3926 23.3219V27.2379H85.3553V26.5013C85.1466 26.8 84.8581 27.0292 84.4899 27.1888C84.1216 27.3443 83.7124 27.422 83.2623 27.422Z" fill="white"/>
<path d="M78.5178 27.2378V21.2226H79.6472V27.2378H78.5178ZM79.0825 20.0871C78.8697 20.0871 78.6856 20.0155 78.5301 19.8723C78.3746 19.7291 78.2969 19.549 78.2969 19.3321C78.2969 19.1071 78.3746 18.925 78.5301 18.7859C78.6856 18.6427 78.8697 18.571 79.0825 18.571C79.2994 18.571 79.4835 18.6427 79.6349 18.7859C79.7904 18.925 79.8682 19.1071 79.8682 19.3321C79.8682 19.549 79.7904 19.7291 79.6349 19.8723C79.4835 20.0155 79.2994 20.0871 79.0825 20.0871Z" fill="white"/>
<path d="M73.6047 29.9999C73.1546 29.9999 72.7495 29.9589 72.3894 29.8771C72.0334 29.7953 71.7285 29.6786 71.4748 29.5272C71.2211 29.3799 71.0268 29.1999 70.8917 28.9871C70.7608 28.7743 70.6953 28.537 70.6953 28.2751C70.6953 28.0582 70.7526 27.8577 70.8672 27.6736C70.9818 27.4935 71.1516 27.338 71.3766 27.2071C71.6017 27.0721 71.8799 26.9698 72.2114 26.9002C71.97 26.7815 71.7879 26.6485 71.6651 26.5012C71.5464 26.3498 71.4871 26.1759 71.4871 25.9795C71.4871 25.8117 71.5362 25.6562 71.6344 25.513C71.7326 25.3657 71.8697 25.2348 72.0457 25.1202C72.2257 25.0015 72.4385 24.9054 72.684 24.8317C72.9336 24.754 73.2078 24.7049 73.5065 24.6844L73.7827 25.2123C73.5208 25.2123 73.2937 25.2348 73.1014 25.2798C72.9132 25.3248 72.7658 25.3903 72.6595 25.4762C72.5572 25.558 72.506 25.6562 72.506 25.7708C72.506 25.9263 72.5919 26.0368 72.7638 26.1023C72.9398 26.1636 73.175 26.2066 73.4697 26.2312L74.5008 26.311C75.0123 26.3519 75.4461 26.4358 75.8021 26.5626C76.1581 26.6895 76.4302 26.8654 76.6184 27.0905C76.8067 27.3155 76.9008 27.5999 76.9008 27.9436C76.9008 28.2342 76.821 28.5043 76.6614 28.7539C76.5059 29.0076 76.2829 29.2265 75.9924 29.4106C75.7018 29.5948 75.354 29.738 74.9489 29.8403C74.5438 29.9467 74.0957 29.9999 73.6047 29.9999ZM73.6906 29.1774C74.3413 29.1774 74.8528 29.0771 75.2251 28.8766C75.5975 28.6761 75.7837 28.4183 75.7837 28.1032C75.7837 27.8618 75.6548 27.6715 75.397 27.5324C75.1433 27.3974 74.7586 27.3114 74.243 27.2746L73.1505 27.1948C72.8641 27.2153 72.6185 27.2664 72.4139 27.3483C72.2093 27.4342 72.0518 27.5447 71.9413 27.6797C71.8349 27.8148 71.7817 27.9682 71.7817 28.1401C71.7817 28.3447 71.8595 28.5247 72.015 28.6802C72.1705 28.8357 72.3894 28.9564 72.6717 29.0423C72.9582 29.1324 73.2978 29.1774 73.6906 29.1774ZM73.6599 25.3166C73.1689 25.3166 72.7249 25.2225 72.328 25.0343C71.9352 24.8419 71.6221 24.5841 71.3889 24.2609C71.1597 23.9376 71.0452 23.5755 71.0452 23.1745C71.0452 22.7775 71.1597 22.4174 71.3889 22.0942C71.6221 21.7709 71.9372 21.5152 72.3341 21.3269C72.7311 21.1346 73.173 21.0385 73.6599 21.0385C74.151 21.0385 74.5929 21.1346 74.9857 21.3269C75.3827 21.5152 75.6957 21.7709 75.9249 22.0942C76.1581 22.4174 76.2747 22.7775 76.2747 23.1745C76.2747 23.5755 76.1581 23.9376 75.9249 24.2609C75.6957 24.5841 75.3847 24.8419 74.9919 25.0343C74.5991 25.2225 74.1551 25.3166 73.6599 25.3166ZM73.6599 24.4205C73.9627 24.4205 74.2287 24.3693 74.4579 24.267C74.6911 24.1606 74.8732 24.0154 75.0042 23.8312C75.1351 23.643 75.2006 23.4241 75.2006 23.1745C75.2006 22.8062 75.0574 22.5075 74.7709 22.2783C74.4886 22.0451 74.1182 21.9285 73.6599 21.9285C73.3571 21.9285 73.0891 21.9817 72.8559 22.088C72.6267 22.1944 72.4467 22.3417 72.3157 22.53C72.1889 22.7141 72.1255 22.9289 72.1255 23.1745C72.1255 23.5427 72.2666 23.8435 72.549 24.0767C72.8354 24.3059 73.2057 24.4205 73.6599 24.4205ZM74.6113 22.1494L74.1939 21.3269L77.2998 21.2226L77.2875 22.1801L74.6113 22.1494Z" fill="white"/>
<path d="M66.5752 27.4219C65.9533 27.4219 65.3988 27.2767 64.9119 26.9861C64.4249 26.6956 64.0423 26.3089 63.7641 25.8261C63.4858 25.3432 63.3467 24.8113 63.3467 24.2302C63.3467 23.8005 63.4265 23.3934 63.5861 23.0087C63.7456 22.6241 63.9707 22.2845 64.2612 21.9898C64.5518 21.6911 64.8934 21.4579 65.2863 21.2901C65.6791 21.1223 66.1088 21.0385 66.5752 21.0385C67.2013 21.0385 67.7578 21.1837 68.2448 21.4742C68.7317 21.7648 69.1143 22.1515 69.3926 22.6343C69.6708 23.1172 69.8099 23.6491 69.8099 24.2302C69.8099 24.6598 69.7302 25.067 69.5706 25.4516C69.411 25.8363 69.1859 26.1759 68.8954 26.4705C68.6049 26.7652 68.2632 26.9984 67.8704 27.1703C67.4775 27.338 67.0458 27.4219 66.5752 27.4219ZM66.5752 26.403C66.9803 26.403 67.3384 26.315 67.6494 26.1391C67.9645 25.959 68.212 25.7074 68.3921 25.3841C68.5721 25.0568 68.6621 24.6721 68.6621 24.2302C68.6621 23.7842 68.5721 23.3995 68.3921 23.0763C68.2161 22.7489 67.9706 22.4972 67.6555 22.3213C67.3404 22.1453 66.9803 22.0574 66.5752 22.0574C66.1701 22.0574 65.81 22.1453 65.495 22.3213C65.184 22.4972 64.9385 22.7489 64.7584 23.0763C64.5825 23.3995 64.4945 23.7842 64.4945 24.2302C64.4945 24.6721 64.5825 25.0568 64.7584 25.3841C64.9385 25.7074 65.186 25.959 65.5011 26.1391C65.8162 26.315 66.1742 26.403 66.5752 26.403Z" fill="white"/>
<path d="M60.7993 27.2378V18.3992H61.9287V27.2378H60.7993Z" fill="white"/>
<path d="M56.1456 27.4219C55.5236 27.4219 54.9691 27.2767 54.4822 26.9861C53.9952 26.6956 53.6126 26.3089 53.3344 25.8261C53.0561 25.3432 52.917 24.8113 52.917 24.2302C52.917 23.8005 52.9968 23.3934 53.1564 23.0087C53.316 22.6241 53.541 22.2845 53.8315 21.9898C54.1221 21.6911 54.4638 21.4579 54.8566 21.2901C55.2494 21.1223 55.6791 21.0385 56.1456 21.0385C56.7716 21.0385 57.3281 21.1837 57.8151 21.4742C58.302 21.7648 58.6846 22.1515 58.9629 22.6343C59.2411 23.1172 59.3803 23.6491 59.3803 24.2302C59.3803 24.6598 59.3005 25.067 59.1409 25.4516C58.9813 25.8363 58.7562 26.1759 58.4657 26.4705C58.1752 26.7652 57.8335 26.9984 57.4407 27.1703C57.0478 27.338 56.6161 27.4219 56.1456 27.4219ZM56.1456 26.403C56.5507 26.403 56.9087 26.315 57.2197 26.1391C57.5348 25.959 57.7823 25.7074 57.9624 25.3841C58.1424 25.0568 58.2325 24.6721 58.2325 24.2302C58.2325 23.7842 58.1424 23.3995 57.9624 23.0763C57.7864 22.7489 57.5409 22.4972 57.2258 22.3213C56.9108 22.1453 56.5507 22.0574 56.1456 22.0574C55.7405 22.0574 55.3804 22.1453 55.0653 22.3213C54.7543 22.4972 54.5088 22.7489 54.3287 23.0763C54.1528 23.3995 54.0648 23.7842 54.0648 24.2302C54.0648 24.6721 54.1528 25.0568 54.3287 25.3841C54.5088 25.7074 54.7563 25.959 55.0714 26.1391C55.3865 26.315 55.7445 26.403 56.1456 26.403Z" fill="white"/>
<path d="M46.0537 27.2378V21.2226H47.1831V22.0328C47.4409 21.6809 47.7416 21.4272 48.0854 21.2717C48.4291 21.1162 48.781 21.0385 49.1411 21.0385C49.6853 21.0385 50.1354 21.1489 50.4915 21.3699C50.8515 21.5868 51.1196 21.865 51.2955 22.2047C51.4756 22.5443 51.5656 22.8921 51.5656 23.2481V27.2378H50.4362V23.598C50.4362 23.1438 50.295 22.7796 50.0127 22.5054C49.7303 22.2272 49.3457 22.088 48.8588 22.088C48.5396 22.088 48.2531 22.1597 47.9994 22.3029C47.7498 22.442 47.5514 22.6405 47.4041 22.8983C47.2568 23.156 47.1831 23.4527 47.1831 23.7883V27.2378H46.0537Z" fill="white"/>
<path d="M42.5332 27.4219C41.8989 27.4219 41.3363 27.2828 40.8452 27.0045C40.3542 26.7263 39.9696 26.3478 39.6913 25.869C39.4131 25.3862 39.2739 24.8399 39.2739 24.2302C39.2739 23.7678 39.3558 23.3422 39.5194 22.9535C39.6872 22.5648 39.9225 22.2272 40.2253 21.9407C40.5281 21.6543 40.8821 21.4333 41.2872 21.2778C41.6964 21.1182 42.1424 21.0385 42.6252 21.0385C43.0181 21.0385 43.3802 21.0896 43.7117 21.1919C44.0431 21.2942 44.35 21.4517 44.6324 21.6645L44.0554 22.5361C43.8713 22.3765 43.6564 22.2579 43.4109 22.1801C43.1654 22.0983 42.9055 22.0574 42.6314 22.0574C42.1813 22.0574 41.7905 22.1433 41.459 22.3151C41.1317 22.4829 40.878 22.7284 40.6979 23.0517C40.5179 23.375 40.4279 23.7637 40.4279 24.2179C40.4279 24.9013 40.6243 25.4373 41.0171 25.8261C41.414 26.2107 41.9501 26.403 42.6252 26.403C42.9362 26.403 43.2268 26.3478 43.4968 26.2373C43.7669 26.1227 43.9879 25.9754 44.1597 25.7954L44.7428 26.6547C44.4278 26.892 44.082 27.0802 43.7055 27.2194C43.3291 27.3544 42.9383 27.4219 42.5332 27.4219Z" fill="white"/>
<path d="M35.5138 27.4219C34.8754 27.4219 34.3128 27.2889 33.8259 27.023C33.3389 26.757 32.9584 26.3867 32.6842 25.912C32.41 25.4332 32.2729 24.8767 32.2729 24.2425C32.2729 23.7842 32.3507 23.3586 32.5062 22.9658C32.6658 22.5729 32.8867 22.2333 33.1691 21.9469C33.4555 21.6604 33.789 21.4374 34.1696 21.2778C34.5542 21.1182 34.9716 21.0385 35.4217 21.0385C35.9087 21.0385 36.3424 21.1244 36.723 21.2962C37.1076 21.4681 37.4247 21.7095 37.6743 22.0205C37.9281 22.3274 38.1101 22.6896 38.2206 23.1069C38.3311 23.5202 38.3536 23.9703 38.2881 24.4573H33.3901C33.3778 24.8583 33.4596 25.2102 33.6356 25.513C33.8115 25.8117 34.0652 26.045 34.3967 26.2127C34.7322 26.3805 35.1291 26.4644 35.5874 26.4644C35.923 26.4644 36.2503 26.4112 36.5695 26.3048C36.8887 26.1984 37.171 26.0409 37.4166 25.8322L37.8953 26.6731C37.6989 26.8327 37.4657 26.9698 37.1956 27.0843C36.9296 27.1948 36.6514 27.2787 36.3608 27.336C36.0703 27.3933 35.788 27.4219 35.5138 27.4219ZM33.4514 23.5796H37.1588C37.1424 23.0722 36.9849 22.6773 36.6861 22.3949C36.3874 22.1085 35.9598 21.9653 35.4033 21.9653C34.8632 21.9653 34.4171 22.1085 34.0652 22.3949C33.7133 22.6773 33.5087 23.0722 33.4514 23.5796Z" fill="white"/>
<path d="M28.5526 27.2378V19.7065H26.0913V18.6447H32.1679V19.7065H29.7066V27.2378H28.5526Z" fill="white"/>
<path d="M78.4933 15.9037V4.18041H74.4038V0H87.1949V4.18041H83.1054V15.9037H78.4933Z" fill="white"/>
<path d="M59.8823 15.9037V0H66.63C67.872 0 68.955 0.193117 69.8789 0.57935C70.8104 0.965583 71.5299 1.52979 72.0373 2.27196C72.5523 3.00656 72.8098 3.9002 72.8098 4.95287C72.8098 5.72534 72.6735 6.40314 72.4008 6.98628C72.1282 7.56941 71.7647 8.06167 71.3103 8.46305C70.8559 8.86443 70.3561 9.17871 69.8108 9.40591L73.7413 15.9037H68.334L65.3577 10.4283H64.4717V15.9037H59.8823ZM64.4717 6.81588H66.1529C66.7815 6.81588 67.2738 6.70228 67.6297 6.47508C67.9932 6.24789 68.175 5.84651 68.175 5.27095C68.175 4.68781 67.9932 4.28643 67.6297 4.06681C67.2738 3.83961 66.7891 3.72601 66.1756 3.72601H64.4717V6.81588Z" fill="white"/>
<path d="M48.8114 16.5853C47.5694 16.5853 46.4258 16.377 45.3807 15.9605C44.3356 15.5364 43.4268 14.9495 42.6544 14.1997C41.8895 13.45 41.295 12.5715 40.8709 11.5643C40.4544 10.557 40.2461 9.4665 40.2461 8.29265C40.2461 7.11123 40.4544 6.0169 40.8709 5.00967C41.295 4.00243 41.8895 3.12394 42.6544 2.3742C43.4268 1.62445 44.3356 1.04131 45.3807 0.624788C46.4258 0.208263 47.5694 0 48.8114 0C50.0534 0 51.1932 0.21205 52.2307 0.636149C53.2758 1.06025 54.1808 1.65096 54.9457 2.40828C55.7181 3.1656 56.3164 4.04787 56.7405 5.05511C57.1646 6.05477 57.3767 7.13395 57.3767 8.29265C57.3767 9.4665 57.1646 10.557 56.7405 11.5643C56.3164 12.5715 55.7181 13.45 54.9457 14.1997C54.1808 14.9495 53.2758 15.5364 52.2307 15.9605C51.1932 16.377 50.0534 16.5853 48.8114 16.5853ZM48.8114 12.2913C49.3642 12.2913 49.8678 12.2004 50.3222 12.0187C50.7842 11.8293 51.1818 11.5605 51.515 11.2121C51.8482 10.8637 52.1057 10.4434 52.2875 9.95118C52.4692 9.45892 52.5601 8.90608 52.5601 8.29265C52.5601 7.47475 52.4011 6.76665 52.083 6.16837C51.7649 5.57009 51.3219 5.10812 50.7539 4.78247C50.1935 4.45683 49.546 4.294 48.8114 4.294C48.2585 4.294 47.7511 4.38867 47.2892 4.578C46.8348 4.75975 46.441 5.02482 46.1077 5.37318C45.7745 5.72155 45.517 6.14186 45.3353 6.63412C45.1535 7.12638 45.0626 7.67922 45.0626 8.29265C45.0626 9.11056 45.2217 9.81865 45.5398 10.4169C45.8578 11.0152 46.2971 11.4772 46.8575 11.8028C47.4255 12.1285 48.0768 12.2913 48.8114 12.2913Z" fill="white"/>
<path d="M27.4673 15.9037V0H38.3727V4.18041H32.0566V6.6114H37.6684V10.6101H32.0566V15.9037H27.4673Z" fill="white"/>
</svg>
