<svg width="800" height="800" viewBox="0 0 800 800" fill="none" xmlns="http://www.w3.org/2000/svg">
<path d="M359.5 375H233.5C221.5 375 212.5 366 212.5 354V228C212.5 216 221.5 207 233.5 207H359.5C371.5 207 380.5 216 380.5 228V354C380.5 365 370.5 375 359.5 375ZM254.5 333H338.5V249H254.5V333ZM577.5 375H451.5C439.5 375 430.5 366 430.5 354V228C430.5 216 439.5 207 451.5 207H577.5C589.5 207 598.5 216 598.5 228V354C598.5 365 588.5 375 577.5 375ZM472.5 333H556.5V249H472.5V333ZM359.5 593H233.5C221.5 593 212.5 584 212.5 572V446C212.5 434 221.5 425 233.5 425H359.5C371.5 425 380.5 434 380.5 446V572C380.5 584 370.5 593 359.5 593ZM254.5 551H338.5V467H254.5V551ZM577.5 593H451.5C439.5 593 430.5 584 430.5 572V446C430.5 434 439.5 425 451.5 425H577.5C589.5 425 598.5 434 598.5 446V572C598.5 584 588.5 593 577.5 593ZM472.5 551H556.5V467H472.5V551Z" fill="#442A05"/>
</svg>
