<svg width="30" height="30" viewBox="0 0 30 30" fill="none" xmlns="http://www.w3.org/2000/svg">
<g clip-path="url(#clip0_158_873)">
<path fill-rule="evenodd" clip-rule="evenodd" d="M25.625 4.375C22.8125 1.5625 19 0 15 0C6.7625 0 0 6.7625 0 15C0 17.6375 0.8125 20.1375 2.125 22.4L0 30L7.9125 28.0625C10.1 29.2625 12.5 30 15 30C23.2375 30 30 23.2375 30 15C30 11.0125 28.45 7.2 25.625 4.375ZM15 27.5C12.775 27.5 10.65 26.7625 8.7375 25.6375L8.2875 25.3625L3.5875 26.6L4.8375 22.0125L4.5375 21.5375C3.3 19.5625 2.5 17.35 2.5 15C2.5 8.15 8.15 2.5 15 2.5C18.3125 2.5 21.5 3.8125 23.85 6.1625C26.2 8.5125 27.5 11.6875 27.5 15C27.5 21.85 21.8375 27.5 15 27.5ZM21.875 18.0625C21.5 17.875 19.6625 16.975 19.325 16.85C18.9875 16.725 18.7375 16.6625 18.4875 17.0375C18.2375 17.4125 17.525 18.25 17.3 18.5C17.0875 18.75 16.8625 18.775 16.4875 18.5875C16.1125 18.4 14.9125 18.0125 13.4875 16.7375C12.375 15.75 11.625 14.525 11.4125 14.15C11.2 13.775 11.3875 13.575 11.575 13.3875C11.7375 13.225 11.95 12.95 12.1375 12.7375C12.325 12.525 12.3875 12.3625 12.5125 12.1125C12.6375 11.8625 12.575 11.65 12.4875 11.4625C12.3875 11.275 11.6375 9.4375 11.325 8.6875C11.025 7.9625 10.7125 8.0625 10.4875 8.05C10.275 8.0375 10.025 8.0375 9.775 8.0375C9.525 8.0375 9.125 8.1375 8.775 8.5C8.4375 8.875 7.475 9.7875 7.475 11.625C7.475 13.4625 8.8125 15.2375 9 15.4875C9.1875 15.7375 11.6375 19.5125 15.375 21.125C16.2625 21.5125 16.9625 21.7375 17.5 21.9125C18.4 22.2 19.2125 22.1625 19.85 22.0625C20.5625 21.95 22.0625 21.1625 22.375 20.2875C22.6875 19.4125 22.6875 18.6625 22.5875 18.5125C22.5 18.35 22.25 18.25 21.875 18.0625Z" fill="#FBC379"/>
</g>
<defs>
<clipPath id="clip0_158_873">
<rect width="30" height="30" fill="white"/>
</clipPath>
</defs>
</svg>
