<svg width="800" height="800" viewBox="0 0 800 800" fill="none" xmlns="http://www.w3.org/2000/svg">
<path d="M413 589C311 589 226 504 226 400C226 296 311 211 415 211C434 211 453 214 472 220C481 223 487 232 487 242C486 252 479 260 469 261C414 269 373 316 373 371C373 432 423 482 484 482C509 482 533 474 553 458C561 452 572 452 579 458C587 464 589 475 585 484C551 548 486 589 413 589ZM381 257C316 272 268 331 268 400C268 481 334 547 415 547C444 547 472 539 495 523C491 523 487 523 483 523C399 523 330 454 330 370C328 326 348 285 381 257Z" fill="#442A05"/>
</svg>
