<svg width="134" height="20" viewBox="0 0 134 20" fill="none" xmlns="http://www.w3.org/2000/svg">
<path fill-rule="evenodd" clip-rule="evenodd" d="M102.19 3.27567V0H107.599C107.599 0.171438 107.599 0.342521 107.599 0.513419C107.6 0.854677 107.601 1.19522 107.599 1.53647C107.594 2.21591 107.59 1.50012 107.585 2.17974C107.574 3.94487 107.563 5.71038 107.541 7.47505L107.539 7.62471C107.518 9.36738 107.496 11.11 107.422 12.8511C107.384 13.736 107.036 14.5594 106.624 15.3325C105.225 17.95 103.069 19.5108 100.167 19.9208C96.3704 20.4573 92.6282 18.2223 91.2342 14.5756C89.2635 9.41996 92.2634 4.08929 97.3247 2.94666C98.8509 2.60306 100.368 2.71327 101.851 3.22381L101.879 3.23357L101.88 3.23368L101.908 3.24334C101.937 3.25293 101.965 3.26241 101.993 3.27162C102.021 3.28087 102.05 3.28984 102.079 3.29836C102.087 3.30128 102.097 3.29835 102.121 3.29169C102.137 3.28726 102.158 3.28114 102.188 3.27405L102.19 3.27567ZM102.195 11.373C102.367 9.83325 100.925 8.16387 99.0994 8.17846C97.3629 8.19143 95.9451 9.61121 95.9451 11.3632C95.9451 13.1428 97.3502 14.5561 99.1026 14.5723C100.903 14.5902 102.367 12.9305 102.195 11.373ZM63.9473 5.44476L63.9475 5.44443L63.949 5.44757L63.9473 5.44476ZM63.9473 5.44476L63.1601 6.6402C62.3918 7.80717 61.6256 8.97092 60.855 10.1399C59.7409 7.79217 57.3002 7.86906 56.079 8.90012C54.7105 10.0552 54.5584 12.2491 55.7858 13.6019C56.934 14.8683 59.1094 15.0268 60.4438 13.3476C61.4353 14.8526 62.4237 16.3529 63.4416 17.8987C63.4203 17.9149 63.3991 17.9311 63.3779 17.9473C63.3632 17.9586 63.3485 17.97 63.3339 17.9813L63.3058 18.0031C63.2441 18.0511 63.1829 18.0994 63.1217 18.1477L63.1214 18.1479C62.9001 18.3224 62.68 18.496 62.447 18.6489C58.6455 21.141 53.6724 20.0958 51.1975 16.2541C49.6521 13.8545 49.2766 11.24 50.2278 8.54545C51.3124 5.47426 53.4459 3.47492 56.6857 2.91309C59.4927 2.42503 61.8977 3.33053 63.8963 5.3644C63.907 5.37625 63.9153 5.39057 63.9261 5.40935C63.9321 5.41969 63.9389 5.43139 63.9473 5.44476ZM10.8804 13.3354L10.8806 13.3357L10.882 13.3339L10.8804 13.3354ZM10.8806 13.3357C10.1574 14.2902 8.98207 14.7587 7.91677 14.5375C6.19444 14.1813 5.13312 12.5821 5.46362 10.7743C5.69482 9.50781 6.45512 8.65408 7.68403 8.31668C8.90051 7.9824 9.94633 8.35591 10.7687 9.31792C10.9075 9.48058 11.0198 9.66628 11.1344 9.85552L11.1346 9.85581C11.189 9.94581 11.244 10.0366 11.3025 10.1261C11.3102 10.1169 11.3183 10.1076 11.3266 10.0982L11.3371 10.0863C11.3414 10.0814 11.3457 10.0764 11.3499 10.0713L11.352 10.0688L11.3568 10.063C11.365 10.053 11.3728 10.0427 11.3801 10.032L11.7462 9.4753C12.5983 8.17946 13.4502 6.88408 14.308 5.5923C14.4073 5.44165 14.3515 5.3616 14.2491 5.26117C12.2552 3.29635 9.87806 2.44577 7.12232 2.91187C4.78865 3.30734 2.93753 4.533 1.64658 6.56215C0.547989 8.28843 0.0297394 10.1638 0.240768 12.229C0.440933 14.1735 1.16399 15.8778 2.46582 17.3247C5.39534 20.5826 10.3855 20.9075 13.6874 18.0654C13.8518 17.9226 13.8534 17.8316 13.7401 17.6621C13.3722 17.115 13.0104 16.5632 12.6488 16.0116L12.6487 16.0114L12.6482 16.0105L12.6478 16.01L12.6475 16.0095L12.6471 16.009L12.6468 16.0085L12.6465 16.008L12.6461 16.0075L12.6458 16.007L12.6454 16.0065L12.6451 16.0059C12.4956 15.7779 12.3461 15.5498 12.1962 15.3222C11.9244 14.9113 11.6525 14.501 11.3765 14.0843L11.3619 14.0622L11.1617 13.7601L10.8806 13.3357ZM14.5013 12.9754C15.199 17.0667 18.7869 20.0193 22.8772 19.9983H22.8788C22.9086 19.9983 22.9385 19.9984 22.9684 19.9986C22.9947 19.9987 23.021 19.9989 23.0473 19.9991H23.0476C23.1792 20.0001 23.3111 20.0012 23.4422 19.9966C23.5374 19.9929 23.6316 19.9798 23.7263 19.9666L23.7267 19.9665C23.7561 19.9624 23.7855 19.9584 23.815 19.9545C26.4235 19.6273 28.4767 18.364 29.949 16.1694C31.2708 14.1999 31.6677 12.0457 31.0564 9.73448C30.5171 7.69694 29.4257 6.00278 27.779 4.70867C25.3945 2.83473 22.762 2.23869 19.8751 3.34654C16.3048 4.71677 13.7155 8.36424 14.5013 12.9754ZM19.7054 11.3703C19.7214 9.6049 21.1425 8.19256 22.8868 8.20713V8.20552C24.676 8.22009 25.9946 9.60814 25.9754 11.4562C25.9578 13.2378 24.5928 14.6096 22.8532 14.5951C21.0897 14.5805 19.6894 13.1455 19.7054 11.3703ZM42.6238 20H48.0653L48.067 19.9984L48.0682 19.9745L48.0693 19.9549C48.0701 19.941 48.0709 19.9275 48.0717 19.9144L48.0719 19.9123C48.0753 19.8555 48.0783 19.806 48.0783 19.7573C48.0778 18.8983 48.0787 18.0394 48.0795 17.1806L48.0796 17.1533V17.1526C48.0817 14.9822 48.0839 12.8122 48.0653 10.6413C48.054 9.29924 47.7296 8.01416 47.11 6.81705C45.6162 3.93094 42.5427 2.39505 39.2648 2.87878C36.1993 3.33319 33.6902 5.55805 32.983 8.99467C32.7476 10.1328 32.7415 11.2861 32.7355 12.437L32.7349 12.5518C32.7256 14.2807 32.7412 16.0095 32.7567 17.7384L32.7568 17.743C32.763 18.4329 32.7692 19.1228 32.7738 19.8127C32.7738 19.8331 32.7753 19.8535 32.7775 19.8738C32.7791 19.8878 32.781 19.9018 32.7829 19.9157L32.7857 19.9347L32.7858 19.9352L32.786 19.9368C32.7873 19.9455 32.7886 19.9542 32.7898 19.9629L32.7912 19.9731L32.7926 19.9845L32.7933 19.9902H38.2284V19.6384L38.2283 18.7798L38.2282 17.5497V17.5487V17.5165V17.5161V17.5158V17.5154C38.2279 15.4386 38.2276 13.362 38.23 11.2847C38.23 10.6446 38.3046 10.0126 38.5981 9.43117C38.9793 8.67217 39.547 8.15912 40.439 8.16401C41.3068 8.16889 41.8647 8.67217 42.2426 9.40673C42.5362 9.97842 42.6221 10.599 42.6221 11.2309C42.6238 14.0063 42.6238 16.7816 42.6238 19.557V20ZM63.717 11.2805C63.8452 7.8192 65.439 5.27584 68.4777 3.66174C69.5606 3.08702 70.7395 2.79561 71.9617 2.79075C73.7558 2.78427 75.3705 3.38328 76.809 4.44694C78.6911 5.83923 79.9294 7.68159 80.4724 9.98049C81.0394 12.3798 80.4948 14.5524 79.0628 16.5048C77.6483 18.4346 75.7357 19.5841 73.3842 19.916C69.5718 20.4535 66.0013 18.3683 64.4443 14.928C63.9204 13.7721 63.6914 12.5611 63.7186 11.2821L63.717 11.2805ZM72.2245 14.5832C73.9929 14.5832 75.3288 13.2006 75.3272 11.3679C75.3272 9.56442 73.9833 8.19803 72.2116 8.19641C70.4608 8.19641 69.0576 9.61138 69.0544 11.3825C69.0512 13.1666 70.4544 14.5832 72.2245 14.5832ZM88.9954 2.86437V8.03378C87.7075 8.4936 87.1396 9.31436 87.1133 10.8366C87.0966 11.776 87.0998 12.7154 87.103 13.6542V13.6547V13.655V13.6553C87.1042 14.0304 87.1055 14.4055 87.1055 14.7804V20H81.9075C81.9066 19.9922 81.9056 19.9846 81.9045 19.977L81.903 19.9667C81.9019 19.9589 81.9006 19.9512 81.8994 19.9436L81.8993 19.9426C81.8959 19.9214 81.8926 19.9006 81.8907 19.8801C81.8895 19.8682 81.8889 19.8564 81.8889 19.8446C81.8852 19.0552 81.8807 18.2656 81.8762 17.476V17.4749V17.4738V17.4728V17.4717V17.4706V17.4681L81.8761 17.4658C81.8651 15.5417 81.8541 13.6172 81.8563 11.6935C81.8578 10.3878 81.9168 9.08367 82.3621 7.83604C83.3071 5.18856 85.1287 3.55959 87.872 3.00875C88.1158 2.96008 88.3637 2.93424 88.6188 2.90766L88.6198 2.90755C88.7427 2.89474 88.8673 2.88175 88.9939 2.86594L88.9954 2.86437ZM128.391 20V19.4742L128.39 19.4758C128.359 19.4687 128.338 19.4626 128.322 19.4582C128.299 19.4515 128.288 19.4486 128.28 19.4515C128.213 19.4714 128.147 19.4937 128.08 19.5164L128.052 19.5259C126.569 20.0352 125.052 20.1451 123.526 19.8024C118.465 18.6625 115.465 13.3449 117.435 8.20186C118.829 4.56407 122.572 2.33451 126.368 2.86967C129.271 3.27872 131.426 4.83569 132.825 7.44681C133.237 8.21803 133.585 9.03936 133.623 9.92213C133.697 11.6592 133.719 13.3978 133.741 15.1364L133.743 15.285C133.757 16.472 133.767 16.6372 133.775 16.7755C133.784 16.9213 133.791 17.0373 133.8 18.2884C133.802 18.6334 133.801 19.0592 133.801 19.4573V19.4583V19.4606V19.4627C133.8 19.6522 133.8 19.8352 133.8 20H128.391ZM125.301 14.5833C127.126 14.5979 128.568 12.9326 128.396 11.3966C128.568 9.8429 127.104 8.1873 125.304 8.20509C123.551 8.22126 122.146 9.63111 122.146 11.4063C122.146 13.1541 123.564 14.5704 125.301 14.5833ZM114.846 20H109.729V2.7907C112.555 2.7907 114.846 5.08134 114.846 7.90698V20ZM74.5067 0C73.7049 0 72.9596 0.413066 72.5346 1.09303L72.055 1.86046H74.9773C76.3421 1.86046 77.6107 1.15737 78.334 0H74.5067Z" fill="white"/>
</svg>
